<svg xmlns="http://www.w3.org/2000/svg" version="1.1" xmlns:xlink="http://www.w3.org/1999/xlink" width="512" height="512" x="0" y="0" viewBox="0 0 24 24" style="enable-background:new 0 0 512 512" xml:space="preserve" class=""><g><path d="M12 16.242v7.77l-7.356-6.013H2c-1.103 0-2-.897-2-2v-8c0-1.026.776-1.873 1.771-1.987L12 16.241ZM14 19v2h1a9.04 9.04 0 0 0 1.612-.145L14.757 19H14Zm6.521.107 3.436 3.436-1.414 1.414-22.5-22.5L1.457.043 6.174 4.76 12 .037v10.549l4.175 4.175A3 3 0 0 0 15 9h-1V7h1c2.757 0 5 2.243 5 5a4.999 4.999 0 0 1-2.346 4.24l1.439 1.439A7.028 7.028 0 0 0 22 12c0-3.86-3.141-7-7-7h-1V3h1c4.963 0 9 4.038 9 9a9.036 9.036 0 0 1-3.479 7.107Z" fill="#ffffff" opacity="1" data-original="#000000" class=""></path></g></svg>