<svg xmlns="http://www.w3.org/2000/svg" version="1.1" xmlns:xlink="http://www.w3.org/1999/xlink" width="512" height="512" x="0" y="0" viewBox="0 0 24 24" style="enable-background:new 0 0 512 512" xml:space="preserve"><g><path d="M2 6a2 2 0 0 0-2 2v8a2 2 0 0 0 2 2h2.8l7.2 5.977V.017L4.8 6ZM20 12a5.006 5.006 0 0 0-5-5h-1v2h1a3 3 0 0 1 0 6h-1v2h1a5.006 5.006 0 0 0 5-5Z" fill="#ffffff" opacity="1" data-original="#000000"></path><path d="M15 3h-1v2h1a7 7 0 0 1 0 14h-1v2h1a9 9 0 0 0 0-18Z" fill="#ffffff" opacity="1" data-original="#000000"></path></g></svg>